# xmcd CD database file
#
# Track frame offsets:
#	150
#	20648
#	34811
#	49051
#	72106
#	87709
#	105326
#	118439
#	137615
#	158167
#	174542
#	188160
#	215824
#	228920
#
# Disc length: 3334 seconds
#
# Revision: 0
# Processed by: cddbd v1.5.1PL2 Copyright (c) Steve Scherf et al.
# Submitted via: CDex 1.40Release
#
DISCID=c70d040e
DTITLE=THE CRANBERRIES - No Need To Argue
DYEAR=1994
DGENRE=Progressive Rock
TTITLE0=01-Ode To My Family
TTITLE1=02-I can`t Be With You
TTITLE2=03-Twenty One
TTITLE3=04-Zombie
TTITLE4=05-Empty
TTITLE5=06-Everything T Said
TTITLE6=07-The Icicle Melts
TTITLE7=08-Disappointment
TTITLE8=09-Ridiculous Thoughts
TTITLE9=10-Dreaming My Dream
TTITLE10=11-Yeat`s Grave
TTITLE11=12-Daffodil Lament
TTITLE12=13-No Need To Argue
TTITLE13=14-So Cold In Ireland
EXTD=YEAR: 1994 ID3G: 92
EXTT0=
EXTT1=
EXTT2=
EXTT3=
EXTT4=
EXTT5=
EXTT6=
EXTT7=
EXTT8=
EXTT9=
EXTT10=
EXTT11=
EXTT12=
EXTT13=
PLAYORDER=
